<svg xmlns="http://www.w3.org/2000/svg" viewBox="0 0 1200 820" role="img" aria-label="Chicken Ranch">
  <defs>
    <linearGradient id="bg" x1="0" x2="1" y1="0" y2="1">
      <stop offset="0" stop-color="#fff8ef"/>
      <stop offset="1" stop-color="#ffe2bd"/>
    </linearGradient>
    <linearGradient id="bun" x1="0" x2="0" y1="0" y2="1">
      <stop offset="0" stop-color="#f3b85c"/>
      <stop offset="1" stop-color="#c97822"/>
    </linearGradient>
    <linearGradient id="chicken" x1="0" x2="1" y1="0" y2="1">
      <stop offset="0" stop-color="#f9d27b"/>
      <stop offset="1" stop-color="#b96b18"/>
    </linearGradient>
    <filter id="shadow" x="-20%" y="-20%" width="140%" height="140%">
      <feDropShadow dx="0" dy="24" stdDeviation="24" flood-color="#7a3c12" flood-opacity=".24"/>
    </filter>
  </defs>
  <rect width="1200" height="820" fill="url(#bg)"/>
  <circle cx="1010" cy="145" r="135" fill="#f47c20" opacity=".14"/>
  <circle cx="175" cy="675" r="150" fill="#198754" opacity=".11"/>
  <g filter="url(#shadow)">
    <ellipse cx="600" cy="595" rx="355" ry="66" fill="#7b3f16" opacity=".2"/>
    <path d="M260 365c31-145 170-234 348-225 178 9 300 109 321 253 10 70-35 112-105 102-143-21-296-27-449-8-72 9-129-49-115-122Z" fill="url(#bun)"/>
    <g fill="#fff2c6" opacity=".9">
      <ellipse cx="408" cy="236" rx="14" ry="7" transform="rotate(-18 408 236)"/>
      <ellipse cx="531" cy="197" rx="14" ry="7" transform="rotate(12 531 197)"/>
      <ellipse cx="671" cy="220" rx="14" ry="7" transform="rotate(-8 671 220)"/>
      <ellipse cx="785" cy="280" rx="14" ry="7" transform="rotate(18 785 280)"/>
    </g>
    <path d="M296 411c123 28 220 25 320 5 122-24 203-12 288 33 23 12 19 47-6 54-166 46-344 51-548 18-45-7-78-38-78-74 0-25 10-40 24-36Z" fill="#e8f0b8"/>
    <path d="M318 455c139-63 345-77 556-29 53 12 78 73 44 116-45 58-161 77-328 71-153-5-275-28-319-73-28-30 2-64 47-85Z" fill="url(#chicken)"/>
    <g fill="#8a4a16" opacity=".32">
      <circle cx="396" cy="500" r="10"/>
      <circle cx="475" cy="462" r="8"/>
      <circle cx="574" cy="530" r="9"/>
      <circle cx="706" cy="478" r="8"/>
      <circle cx="812" cy="525" r="10"/>
    </g>
    <path d="M303 585c120 39 273 56 458 35 83-10 146 8 164 48 14 32-13 70-57 78-196 36-387 26-572-31-47-15-70-63-50-98 11-20 32-39 57-32Z" fill="url(#bun)"/>
  </g>
  <text x="78" y="112" fill="#8b4513" font-family="Arial, Helvetica, sans-serif" font-size="68" font-weight="800">Chicken Ranch</text>
  <text x="82" y="168" fill="#71533c" font-family="Arial, Helvetica, sans-serif" font-size="32" font-weight="700">frango crocante, queijo e molho ranch</text>
</svg>
