<svg xmlns="http://www.w3.org/2000/svg" viewBox="0 0 1200 820" role="img" aria-label="Guarana Antarctica lata">
  <defs>
    <linearGradient id="bg" x1="0" x2="1" y1="0" y2="1">
      <stop offset="0" stop-color="#f1fff1"/>
      <stop offset="1" stop-color="#d7f4bb"/>
    </linearGradient>
    <linearGradient id="can" x1="0" x2="1" y1="0" y2="1">
      <stop offset="0" stop-color="#0c8f43"/>
      <stop offset=".52" stop-color="#0a6d35"/>
      <stop offset="1" stop-color="#064c28"/>
    </linearGradient>
    <filter id="shadow" x="-40%" y="-20%" width="180%" height="150%">
      <feDropShadow dx="0" dy="30" stdDeviation="24" flood-color="#064c28" flood-opacity=".28"/>
    </filter>
  </defs>
  <rect width="1200" height="820" fill="url(#bg)"/>
  <circle cx="930" cy="160" r="155" fill="#f9c846" opacity=".35"/>
  <circle cx="225" cy="665" r="165" fill="#0a8f42" opacity=".12"/>
  <g filter="url(#shadow)">
    <ellipse cx="610" cy="700" rx="210" ry="44" fill="#064c28" opacity=".2"/>
    <path d="M430 135h360c23 0 42 19 42 42v466c0 55-45 100-100 100H488c-55 0-100-45-100-100V177c0-23 19-42 42-42Z" fill="url(#can)"/>
    <ellipse cx="610" cy="139" rx="184" ry="45" fill="#d8e8d6"/>
    <ellipse cx="610" cy="139" rx="122" ry="21" fill="#a7b8a6"/>
    <path d="M420 215c92 19 269 20 385 0v80c-107 33-266 33-385 0Z" fill="#f8d238"/>
    <path d="M438 335c89 27 257 27 344-2v197c-92 38-249 40-344 0Z" fill="#f5f1d9"/>
    <circle cx="586" cy="426" r="61" fill="#d42d21"/>
    <circle cx="638" cy="426" r="61" fill="#f1d34b"/>
    <path d="M515 550c63 28 147 32 220 0" fill="none" stroke="#0d6a35" stroke-width="18" stroke-linecap="round"/>
    <rect x="465" y="610" width="290" height="60" rx="30" fill="#f8d238"/>
  </g>
  <text x="87" y="122" fill="#075a30" font-family="Arial, Helvetica, sans-serif" font-size="68" font-weight="900">Guarana Antarctica</text>
  <text x="92" y="178" fill="#446044" font-family="Arial, Helvetica, sans-serif" font-size="34" font-weight="700">lata 350ml gelada</text>
  <text x="488" y="274" fill="#075a30" font-family="Arial, Helvetica, sans-serif" font-size="55" font-weight="900">GUARANA</text>
  <text x="487" y="648" fill="#075a30" font-family="Arial, Helvetica, sans-serif" font-size="32" font-weight="900">350 ml</text>
</svg>
