<svg xmlns="http://www.w3.org/2000/svg" viewBox="0 0 1200 820" role="img" aria-label="Milkshake Oreo">
  <defs>
    <linearGradient id="bg" x1="0" x2="1" y1="0" y2="1">
      <stop offset="0" stop-color="#fffaf1"/>
      <stop offset="1" stop-color="#e9dccb"/>
    </linearGradient>
    <linearGradient id="glass" x1="0" x2="1" y1="0" y2="1">
      <stop offset="0" stop-color="#ffffff" stop-opacity=".72"/>
      <stop offset="1" stop-color="#cbd5df" stop-opacity=".46"/>
    </linearGradient>
    <filter id="shadow" x="-40%" y="-20%" width="180%" height="150%">
      <feDropShadow dx="0" dy="30" stdDeviation="25" flood-color="#2a1b13" flood-opacity=".26"/>
    </filter>
  </defs>
  <rect width="1200" height="820" fill="url(#bg)"/>
  <circle cx="950" cy="170" r="150" fill="#3a2a22" opacity=".1"/>
  <circle cx="220" cy="660" r="155" fill="#8b5a2b" opacity=".12"/>
  <g filter="url(#shadow)">
    <ellipse cx="612" cy="718" rx="230" ry="47" fill="#2a1b13" opacity=".2"/>
    <path d="M440 270h340l-49 420c-5 45-43 79-88 79h-66c-45 0-83-34-88-79Z" fill="url(#glass)" stroke="#ffffff" stroke-width="14"/>
    <path d="M461 340h298l-38 319c-4 35-34 62-69 62h-86c-35 0-65-27-69-62Z" fill="#f7f4ee"/>
    <path d="M480 420c82 28 168 28 257 0l-15 121c-78 34-155 34-227 0Z" fill="#d7c2aa"/>
    <path d="M482 339c93 28 184 28 274 0v68c-91 34-183 34-274 0Z" fill="#ffffff"/>
    <g fill="#2a211d">
      <circle cx="535" cy="466" r="16"/>
      <circle cx="613" cy="432" r="13"/>
      <circle cx="683" cy="489" r="18"/>
      <circle cx="580" cy="555" r="14"/>
      <circle cx="658" cy="616" r="16"/>
      <circle cx="528" cy="636" r="11"/>
    </g>
    <path d="M516 284c-36-47 15-111 78-78 19-56 105-49 111 13 57-9 93 54 56 98-60 38-183 41-245-33Z" fill="#ffffff"/>
    <g>
      <circle cx="718" cy="228" r="51" fill="#231915"/>
      <circle cx="718" cy="228" r="32" fill="#3a2c25"/>
      <circle cx="718" cy="228" r="13" fill="#f5efe7"/>
      <circle cx="500" cy="253" r="43" fill="#231915"/>
      <circle cx="500" cy="253" r="27" fill="#3a2c25"/>
      <circle cx="500" cy="253" r="11" fill="#f5efe7"/>
    </g>
    <path d="M666 119l39 8-86 333-39-8Z" fill="#33231b"/>
  </g>
  <text x="86" y="122" fill="#3a261b" font-family="Arial, Helvetica, sans-serif" font-size="72" font-weight="900">Milkshake Oreo</text>
  <text x="91" y="178" fill="#765848" font-family="Arial, Helvetica, sans-serif" font-size="34" font-weight="700">cookies, creme e calda de chocolate</text>
</svg>
