<svg xmlns="http://www.w3.org/2000/svg" viewBox="0 0 1200 820" role="img" aria-label="Pepsi lata">
  <defs>
    <linearGradient id="bg" x1="0" x2="1" y1="0" y2="1">
      <stop offset="0" stop-color="#edf6ff"/>
      <stop offset="1" stop-color="#c9e2ff"/>
    </linearGradient>
    <linearGradient id="can" x1="0" x2="1" y1="0" y2="1">
      <stop offset="0" stop-color="#1d66d4"/>
      <stop offset=".52" stop-color="#053d9b"/>
      <stop offset="1" stop-color="#06245c"/>
    </linearGradient>
    <filter id="shadow" x="-40%" y="-20%" width="180%" height="150%">
      <feDropShadow dx="0" dy="30" stdDeviation="24" flood-color="#06245c" flood-opacity=".28"/>
    </filter>
  </defs>
  <rect width="1200" height="820" fill="url(#bg)"/>
  <circle cx="915" cy="168" r="165" fill="#e62633" opacity=".12"/>
  <circle cx="230" cy="650" r="165" fill="#005cbf" opacity=".15"/>
  <g filter="url(#shadow)">
    <ellipse cx="610" cy="700" rx="210" ry="44" fill="#06245c" opacity=".2"/>
    <path d="M430 135h360c23 0 42 19 42 42v466c0 55-45 100-100 100H488c-55 0-100-45-100-100V177c0-23 19-42 42-42Z" fill="url(#can)"/>
    <ellipse cx="610" cy="139" rx="184" ry="45" fill="#d7e4ef"/>
    <ellipse cx="610" cy="139" rx="122" ry="21" fill="#9fb0bf"/>
    <circle cx="610" cy="390" r="128" fill="#ffffff"/>
    <path d="M492 357c45-62 139-82 237-43 37 15 60 42 70 70-80-22-157-13-230 30-31 18-62 25-91 20-4-26 1-52 14-77Z" fill="#e62633"/>
    <path d="M729 430c-46 60-139 81-237 43-34-13-56-37-68-64 77 18 151 8 222-32 36-20 72-28 105-20 3 26-4 51-22 73Z" fill="#005cbf"/>
    <rect x="468" y="575" width="284" height="66" rx="33" fill="#ffffff"/>
    <text x="514" y="621" fill="#053d9b" font-family="Arial, Helvetica, sans-serif" font-size="47" font-weight="900">PEPSI</text>
  </g>
  <text x="88" y="122" fill="#063d96" font-family="Arial, Helvetica, sans-serif" font-size="72" font-weight="900">Pepsi Lata</text>
  <text x="92" y="178" fill="#3e5f86" font-family="Arial, Helvetica, sans-serif" font-size="34" font-weight="700">350ml gelada</text>
</svg>
