<svg xmlns="http://www.w3.org/2000/svg" viewBox="0 0 1200 820" role="img" aria-label="Refrigerante 2L">
  <defs>
    <linearGradient id="bg" x1="0" x2="1" y1="0" y2="1">
      <stop offset="0" stop-color="#fff7ee"/>
      <stop offset="1" stop-color="#ffe0bd"/>
    </linearGradient>
    <linearGradient id="bottle" x1="0" x2="1" y1="0" y2="1">
      <stop offset="0" stop-color="#2b1a13" stop-opacity=".92"/>
      <stop offset=".55" stop-color="#5a2a16" stop-opacity=".88"/>
      <stop offset="1" stop-color="#170d09" stop-opacity=".94"/>
    </linearGradient>
    <filter id="shadow" x="-40%" y="-20%" width="180%" height="150%">
      <feDropShadow dx="0" dy="32" stdDeviation="26" flood-color="#5c260f" flood-opacity=".25"/>
    </filter>
  </defs>
  <rect width="1200" height="820" fill="url(#bg)"/>
  <circle cx="940" cy="180" r="145" fill="#ef7d22" opacity=".16"/>
  <circle cx="230" cy="650" r="165" fill="#9b4b17" opacity=".1"/>
  <g filter="url(#shadow)">
    <ellipse cx="612" cy="719" rx="260" ry="50" fill="#5c260f" opacity=".18"/>
    <path d="M530 94h160v78c0 33 13 64 37 87 47 46 73 110 73 176v209c0 69-56 125-125 125H545c-69 0-125-56-125-125V435c0-66 26-130 73-176 24-23 37-54 37-87Z" fill="url(#bottle)"/>
    <path d="M536 58h148c18 0 33 15 33 33v42H503V91c0-18 15-33 33-33Z" fill="#1f6b37"/>
    <rect x="500" y="316" width="220" height="238" rx="34" fill="#f0f4f7"/>
    <path d="M500 371c61 21 146 21 220 0v83c-71 26-150 26-220 0Z" fill="#e63a27"/>
    <path d="M500 454c69 25 149 25 220 0v54c-71 28-150 28-220 0Z" fill="#1f6b37"/>
    <text x="534" y="435" fill="#ffffff" font-family="Arial, Helvetica, sans-serif" font-size="45" font-weight="900">REFRI</text>
    <text x="541" y="512" fill="#ffffff" font-family="Arial, Helvetica, sans-serif" font-size="42" font-weight="900">2L</text>
    <path d="M465 288c98 35 199 35 294 0" fill="none" stroke="#ffffff" stroke-width="18" stroke-linecap="round" opacity=".33"/>
    <path d="M465 598c104 34 201 34 291 0" fill="none" stroke="#ffffff" stroke-width="18" stroke-linecap="round" opacity=".22"/>
  </g>
  <text x="88" y="122" fill="#8b4513" font-family="Arial, Helvetica, sans-serif" font-size="72" font-weight="900">Refrigerante 2L</text>
  <text x="92" y="178" fill="#76513b" font-family="Arial, Helvetica, sans-serif" font-size="34" font-weight="700">garrafa gelada para dividir</text>
</svg>
